<!-- Created with Inkscape (http://www.inkscape.org/) -->
<svg id="svg2" xmlns:rdf="http://www.w3.org/1999/02/22-rdf-syntax-ns#" xmlns="http://www.w3.org/2000/svg" height="508" width="500" version="1.1" xmlns:cc="http://creativecommons.org/ns#" xmlns:dc="http://purl.org/dc/elements/1.1/">
 <metadata id="metadata8">
  <rdf:RDF>
   <cc:Work rdf:about="">
    <dc:format>image/svg+xml</dc:format>
    <dc:type rdf:resource="http://purl.org/dc/dcmitype/StillImage"/>
    <dc:title/>
   </cc:Work>
  </rdf:RDF>
 </metadata>
 <g id="g2987">
  <path id="path2995" fill="#fcfcfb" d="M0,254,0,0h250,250v254,254h-250-250v-254z"/>
  <path id="path2993" fill="#fee600" d="m205,494.43c-19.488-2.9837-30.794-5.4372-48.5-10.524-16.533-4.7502-46.669-14.521-51.151-16.584-4.6693-2.1497-27.886-32.348-39.622-51.536-8.622-14.11-20.554-34.51-23.017-39.37-11.348-22.4-23.215-58.62-27.165-82.92-4.329-26.63-4.936-35.46-4.991-72.67l-0.055-36.66,8-11.791c27.748-40.898,61.202-77.983,89-98.658,13.517-10.054,36.955-24.516,51.335-31.675,17.025-8.4765,57.168-22.899,80.851-29.048l11.58-3.0067,11.117,3.1629c12.751,3.6277,45.729,14.865,59.367,20.229,14.555,5.7247,24.624,10.628,40.25,19.598,35.801,20.553,56.932,38.238,86.109,72.064,15.788,18.304,40.07,52.608,41.998,59.333,2.1308,7.4295,0.62022,74.346-2.1022,93.126-4.82,33.251-9.0454,50.168-19.356,77.5-5.7387,15.212-15.498,34.62-22.627,45-0.94441,1.375-3.4138,5.5635-5.4875,9.3078-8.1333,14.685-39.647,56.918-43.244,57.953-0.98459,0.28322-8.9902,2.834-17.79,5.6683-24.804,7.9889-46.169,13.959-60.954,17.032-28.09,5.839-40.458,7.0505-70.826,6.9382-23.283-0.0861-29.461-0.44388-42.72-2.4738zm-53.013-52.923c3.9148-0.82352,13.358-3.9699,20.986-6.992,17.94-7.12,23.56-8.52,34.14-8.52,10.259,0,25.521,3.3168,34.152,7.4216,7.0791,3.367,8.9127,3.1604,27.65-3.1165l13.424-4.4969,12.576,0.40443c13.293,0.42749,17.757,1.45,30.576,7.0037,13.945,6.0413,29.692,10.415,32.97,9.1568,2.0761-0.79668,1.9364-4.0938-0.22032-5.2014-0.9625-0.49432-4.9611-1.1547-8.8857-1.4674-6.4515-0.51412-17.986-3.753-25.864-7.2623-10.759-4.7927-15.141-5.7783-27.42-6.1675-9.0054-0.28541-13.679,0.005-17,1.0546-2.5192,0.7965-6.3804,1.76-8.5804,2.1411-2.2,0.38112-7.9853,2.0794-12.856,3.7739l-8.8563,3.081-10.644-3.3639c-5.854-1.8502-11.109-3.6978-11.678-4.1059-2.0085-1.4408-14.095-2.8401-24.597-2.8476-11.403-0.008-12.384,0.25175-31.807,8.4227-8.9956,3.7842-11.488,4.4053-19.905,4.9594-6.3819,0.42019-10.411,3.3948-8.2023,6.0558,1.5741,1.8966,1.2958,1.895,10.032,0.0572zm201.95-14.86c-0.12232-4.0828-2.4417-13.344-3.7307-14.896-0.71217-0.85774-3.4122-1.7631-6-2.0119-2.59-0.25-7.41-1.59-10.71-2.97-24.54-10.26-27.52-11.14-37.5-11.09-5.225,0.0238-13.101,0.75021-17.502,1.6143-9.1134,1.7893-22.209,6.2358-24.623,8.3606-2.1952,1.9321-2.2948,13.784-0.13393,15.945,0.82009,0.82009,1.7763,1.3355,2.125,1.1454,10.258-5.5935,21.592-7.8784,39.26-7.9148,13.252-0.0273,13.911,0.0745,24,3.7081,22.932,8.2592,32.259,11.252,33.535,10.763,0.73656-0.28264,1.3103-1.4782,1.275-2.6569zm-192.82-1.2079c5.1623-1.9607,10.736-4.051,12.386-4.6451,1.65-0.59408,3.45-1.419,4-1.833,3.28-2.48,12.68-3.96,25.08-3.96,14.467,0,25.425,1.6618,33.301,5.0501,7.3132,3.146,8.1052,2.5081,8.1052-6.5285,0-8.99-0.66667-9.8153-10.644-13.176-17.232-5.8037-31.052-5.2894-48.057,1.7882-5.1086,2.1261-9.8532,3.8685-10.544,3.8719-0.69039,0.003-2.6052,0.73185-4.2552,1.6188-1.65,0.88696-6.296,1.9527-10.324,2.3683-4.0284,0.41561-7.7759,1.2071-8.3277,1.7589-1.8084,1.8084-4.3826,13.412-3.4909,15.736,0.83101,2.1656,2.2534,1.9367,12.757-2.0527zm3.88-42.04c20.768-3.0552,34.817-7.1568,32.292-9.4274-0.43581-0.39193-4.0006-1.6675-7.9217-2.8345-7.8259-2.3292-16.344-7.9848-22.733-15.094-9.6265-10.712-13.266-26.717-10.401-45.739,0.89506-5.9427,3.0621-15.98,4.8157-22.305,4.5416-16.381,5.8725-22.801,5.9083-28.5,0.0586-9.3358-6.0063-15.151-14.877-14.264-2.53,0.25-11.79,3.27-20.59,6.7-26.39,10.3-28.86,11.06-36.08,11.06-10.95,0-16.914-4.341-19.561-14.239-1.0633-3.9755-0.99499-6.073,0.44182-13.568,3.1023-16.183,1.5966-17.428-5.0405-4.1656-12.343,24.664-12.925,41.281-1.6715,47.706,5.0515,2.884,17.521,6.9738,23.912,7.8427,2.75,0.37388,5.7875,1.0881,6.75,1.5872,2.3254,1.2057,2.2254,5.0968-0.18712,7.2801-1.849,1.6733-2.3585,1.6541-11.196-0.42063-5.0923-1.1955-10.498-2.8147-12.013-3.5981-1.512-0.78-3.674-1.42-4.801-1.42-2.7588,0-2.7284,3.9665,0.07472,9.7569,4.529,9.3556,12.428,13.877,26.679,15.273,8.2626,0.80901,10.525,2.3875,9.9895,6.9694-0.25446,2.1765-0.84956,2.5411-4.5877,2.8106-2.3624,0.17034-7.9874-0.67365-12.5-1.8755-14.43-3.8432-16.881-2.5988-9.7164,4.9329,5.9861,6.2927,11.307,8.2672,23.917,8.8748,10.97,0.54,14.1,1.71,14.1,5.27,0,0.92951-0.89238,2.4976-1.9831,3.4847-1.7263,1.5623-3.1183,1.7063-10.75,1.1122-15.032-1.1701-15.554-1.1629-16.028,0.22249-0.65082,1.9012,8.2611,10.072,13.526,12.401,3.1328,1.3858,7.5285,2.1256,14.608,2.4587,12.15,0.58,15.62,1.66,15.62,4.88,0,3.83-2.56,5.45-8.63,5.45-3.0172,0-7.5142-0.51078-9.9935-1.1351-8.4975-2.1397-7.933,3.4135,0.8647,8.5068,10.796,6.2502,24.687,7.4218,47.757,4.0278zm90.03-1.65c1.061-2.3375,1.939-5.3923,1.9511-6.7884,0.026-3.0077-3.2155-12.599-4.7902-14.174-3.1059-3.1059-7.9034,8.955-6.7148,16.881,0.69564,4.6389,3.3885,8.3313,6.0759,8.3313,0.85295,0,2.4157-1.9096,3.478-4.25zm116.26,2.1175c10.3-1.73,20.71-7.71,20.71-11.9,0-2.7816-1.3516-3.1102-6.0192-1.4633-5.0888,1.7954-16.097,1.977-17.781,0.29321-0.66-0.66-1.2-2.4711-1.2-4.0248,0-3.5679,2.8401-4.7752,11.233-4.7752,11.517,0,18.269-1.7956,24.781-6.5896,5.3996-3.9749,8.3275-8.4016,6.6601-10.069-0.31106-0.31107-3.4395-0.0651-6.952,0.54657-8.008,1.3945-16.263,1.4284-18.788,0.077-2.2708-1.2153-2.5554-5.2008-0.51701-7.2392,0.9638-0.96381,4.8832-1.6017,12.25-1.9938,13.134-0.69904,18.112-2.5834,24.149-9.1425,6.9482-7.548,4.4645-8.6828-10.178-4.6502-4.3239,1.1908-9.7239,2.0291-12,1.863-3.8145-0.27841-4.162-0.54352-4.4395-3.3872-0.42372-4.3421,1.5589-5.5411,10.684-6.461,13.659-1.377,21.687-6.3933,26.226-16.388,3.3967-7.4784,1.652-10.649-4.1509-7.5433-3.5094,1.8782-21.179,6.0429-23.079,5.4398-2.2603-0.71739-3.5655-5.1513-2.1686-7.3667,0.58774-0.9321,3.2353-1.9168,6.369-2.3689,7.6681-1.1062,18.644-4.5024,24.153-7.4733,11.413-6.1553,11.741-20.28,1.0362-44.647-3.9993-9.1034-6.1834-12.528-8.0195-12.574-1.5284-0.0384-1.5941,2.3457-0.19203,6.9752,2.1374,7.0575,2.9949,16.083,1.9106,20.11-1.1986,4.4512-5.9296,10.295-10.067,12.434-1.6683,0.86271-5.6503,1.4489-9.8422,1.4489-5.659,0-8.857-0.6964-16.3-3.5495-41.066-15.742-41.914-15.973-47.721-12.97-8.3108,4.2977-9.1951,12.781-3.5169,33.738,6.25,23.02,7.49,29.96,7.49,41.9,0,8.2772-0.51981,12.898-2.0161,17.922-4.3761,14.694-19.261,28.527-34.343,31.915-4.7107,1.0584-6.5118,2.5599-4.9474,4.1243,2.0766,2.0766,29.736,7.4759,47.306,9.2345,4.1548,0.41585,11.309-0.12604,19.284-1.4606zm-133.85-0.76105c0.30373-0.49144-0.13409-2.8388-0.97293-5.2163-1.8922-5.363-1.325-8.1676,3.6641-18.118,2.13-4.25,3.87-8.19,3.87-8.75s-2.01-1.02-4.47-1.02c-4.1005,0-4.9649-0.48067-10.34-5.75-7.3776-7.2318-10.19-14.016-10.173-24.538,0.0162-9.8645,1.6086-15.076,9.2317-30.212,3.6008-7.15,6.8477-14.43,7.2152-16.177,0.36748-1.7474,1.7873-4.2962,3.1551-5.664,1.4877-1.4877,3.6163-6.0598,5.2979-11.38,1.546-4.8909,3.317-9.8381,3.9354-10.994,0.90908-1.6986,0.65075-3.1723-1.3487-7.6934-3.3511-7.5773-5.4926-7.5161-5.5158,0.1577-0.0229,7.5721-2.2053,17.434-5.3665,24.25-2.3464,5.059-5.8508,9.7792-20.877,28.121-3.2861,4.0111-6.115,8.741-7.1768,12-3.0375,9.3224-4.3607,9.7501-12.562,4.0603-7.2371-5.0208-11.555-10.832-13.066-17.586-1.0213-4.5635-0.93281-7.5069,0.5431-18.07,0.96971-6.9399,1.5533-15.148,1.2969-18.24-0.39383-4.7491-0.95807-6.061-3.6358-8.4535-1.98-1.78-4.29-2.84-6.16-2.84-3.7032,0-3.8482,1.7054-0.57566,6.7714,1.3247,2.0507,2.7132,5.2037,3.0856,7.0066,0.70678,3.422-0.65591,13.816-3.0445,23.222-8.2493,32.485-9.6248,42.431-7.5308,54.456,2.0756,11.919,7.3293,19.476,18.109,26.049,5.6089,3.42,19.473,8.4772,23.349,8.5173,3.1665,0.0328,10.715,3.7121,14.122,6.8836,4.7515,4.4226,12.665,10.094,14.085,10.094,0.71344,0,1.5457-0.40208,1.8494-0.89352zm32.06-0.96c1.65-1.0112,6.15-4.3723,10-7.469,5.8382-4.6959,8.1618-5.8933,14-7.2143,23.576-5.3347,35.871-14.155,41.077-29.471,1.4053-4.1341,1.8514-8.2318,1.7963-16.5-0.0657-9.8502-0.62893-13.195-5.3886-32-4.2376-16.743-5.3324-22.723-5.3998-29.5-0.0773-7.7644,0.16159-8.8628,2.7601-12.692,3.1728-4.6759,2.8604-6.3077-1.2075-6.3077-3.9064,0-8.8631,5.4064-9.6854,10.564-0.39514,2.4786,0.19926,9.3056,1.5237,17.5,2.4927,15.423,2.1986,19.304-2.0233,26.696-3.32,5.82-13.74,14.24-17.61,14.24-2.46,0-4.34-2.61-4.34-6.01,0-3.3599-4.3028-9.8758-13.602-20.597-16.052-18.508-19.347-25.234-20.161-41.146-0.55269-10.805-1.6312-12.662-4.6463-8-2.3383,3.615-2.9053,7.5308-1.7437,12.041,0.59635,2.3152,1.8576,7.5625,2.8027,11.661,1.6026,6.9492,5.0829,14.572,15.09,33.049,6.1121,11.286,8.2623,18.821,8.2508,28.915-0.008,7.0829-0.45575,9.5471-2.5588,14.085-3.9848,8.5978-12.041,16-17.413,16-3.2012,0-3.4284,2.4411-0.66855,7.1831,1.3818,2.3743,3.4687,6.7603,4.6376,9.7467,2.0248,5.1733,2.0501,5.6595,0.53523,10.291-2.2516,6.884-1.2443,8.1334,3.9774,4.9331zm-57.12-100.9c0.7853-1.5125,4.2844-6.5937,7.7757-11.292,7.1199-9.5803,12.448-19.953,11.507-22.404-2.4157-6.2952-20.752,17.662-23.311,30.457-1.1638,5.8192,1.5544,8.0046,4.0286,3.239zm81.62,1.15c0-7.7036-8.1843-23.368-16.208-31.021-12.393-11.821-9.3756,1.0662,4.7174,20.15,9.23,12.51,11.49,14.64,11.49,10.87zm-74.33-38.65c2.1862-2.3375,5.9223-5.8333,8.3023-7.7684,3.985-3.24,4.3637-3.9574,4.7875-9.0679,0.2728-3.2897-0.23817-8.6886-1.2548-13.258-2.5302-11.373-0.78704-17.377,8.7587-30.17,2.4562-3.2919,4.9943-7.6184,5.64-9.6144,1.3747-4.249,4.4207-7.3451,6.4575-6.5635,0.78826,0.30248,2.1818,2.8039,3.0969,5.5588,0.91501,2.7548,2.9494,6.6267,4.5209,8.6042,5.5117,6.9355,8.9372,13.101,10.4,18.718,1.2771,4.9032,1.2886,6.4538,0.0854,11.49-0.765,3.2021-1.4069,9.0095-1.4265,12.905-0.0337,6.7081,0.13338,7.2378,3.1546,10,1.7546,1.6042,5.5871,5.328,8.5167,8.2753,4.0012,4.0254,5.6441,5.095,6.6032,4.299,0.70221-0.58278,2.0731-5.4692,3.0464-10.859,0.97331-5.3894,2.415-11.824,3.2036-14.299,0.78867-2.475,1.7235-6.75,2.0774-9.5,0.35392-2.75,1.2304-6.1671,1.9478-7.5936,0.71736-1.4265,1.6122-5.0265,1.9885-8,0.37633-2.9735,1.2343-6.7639,1.9066-8.423,0.67232-1.6591,1.5357-5.2591,1.9186-8,0.38288-2.7409,1.3334-7.9084,2.1123-11.483,0.77888-3.575,2.3863-11.675,3.572-18,2.5475-13.589,3.9752-17.423,8.061-21.644,4.1858-4.325,3.4926-6.4231-2.879-8.7135-6.0888-2.1888-9.033-1.7151-13.358,2.1489-2.6998,2.4122-3.1804,3.6658-3.9213,10.229-0.46447,4.1139-1.0919,8.1548-1.3942,8.9798-0.52185,1.4238-3.4862,19.341-5.708,34.5-1.2804,8.7365-3.0494,11.732-6.6784,11.31-4.3322-0.5038-4.9283-4.1508-2.378-14.55,1.1947-4.8716,2.1776-10.186,2.1841-11.809,0.007-1.6234,0.66415-5.4027,1.4614-8.3984,0.79724-2.9957,1.9493-8.8457,2.5602-13,0.61084-4.1543,1.7532-9.7724,2.5386-12.485,0.78539-2.7123,1.428-6.9018,1.428-9.3099,0-3.8989-0.56339-4.9741-5.1451-9.8185-3.2-3.39-5.98-5.45-7.35-5.45-2.1237,0-2.222,0.45897-2.839,13.25-0.35148,7.2875-1.0766,15.725-1.6114,18.75s-1.4505,12.224-2.0349,20.442c-0.8051,11.322-1.4589,15.38-2.6986,16.75-2.2618,2.4992-4.9835,2.2603-6.859-0.602-1.702-2.5976-1.9202,1.1486,3.022-51.881,0.95298-10.225,1.07-15.675,0.37929-17.657-1.33-3.8-12.01-13.05-15.08-13.05-1.5226,0-4.76,2.2343-9.079,6.2658-7.853,7.3304-7.6424,6.1288-5.2006,29.662,4.1164,39.673,4.242,41.498,3.1033,45.072-0.84699,2.6581-1.7372,3.5723-3.7008,3.8006-4.025,0.46788-5.2064-2.0119-6.0135-12.622-0.40493-5.3234-1.5138-17.779-2.4642-27.679-0.95038-9.9-1.7749-20.7-1.8323-24-0.0904-5.1984-0.37156-6.0374-2.1044-6.2798-1.2577-0.17598-3.7454,1.3976-6.7027,4.2396-5.5236,5.3083-6.5696,8.9944-4.9245,17.354,1.3253,6.7344,2.5389,13.297,4.103,22.187,1.6682,9.4818,3.7658,20.516,5.4178,28.5,1.6294,7.8748,0.69236,11.769-2.958,12.294-3.887,0.55863-5.6679-3.1134-7.5468-15.561-3.9494-26.163-7.0541-44.538-7.9022-46.769-1.2487-3.2844-5.6598-5.919-9.9077-5.9177-4.5843,0.001-9.868,2.1913-11.174,4.631-0.8342,1.5587-0.45245,2.3937,2.109,4.6128,4.0756,3.531,5.7754,7.633,7.9598,19.21,0.98591,5.225,2.56,13.55,3.498,18.5,0.93797,4.95,2.3406,10.815,3.1169,13.033,0.7763,2.2184,1.4115,5.2402,1.4115,6.7151s0.74062,4.8348,1.6458,7.4666c0.9052,2.6317,2.2182,7.71,2.9178,11.285s1.732,8.3,2.2943,10.5c2.2119,8.6541,5.1734,23.114,5.1581,25.185-0.021,2.8468,1.6926,7.3151,2.8054,7.3151,0.47903,0,2.6597-1.9125,4.846-4.25zm34.045-19.672c0.98477-1.057,3.1373-4.5445,4.7833-7.75,4.1697-8.12,3.97-12.978-0.90137-21.917-5.2098-9.5602-6.0867-10.368-8.5533-7.8794-3.58,3.6-9.05,15.39-9.05,19.47,0,6.0421,7.783,20,11.152,20,0.42346,0,1.5756-0.86483,2.5604-1.9218z"/>
  <path id="path2991" fill="#008dd1" d="m205,494.43c-19.488-2.9837-30.794-5.4372-48.5-10.524-16.533-4.7502-46.669-14.521-51.151-16.584-4.6693-2.1497-27.886-32.348-39.622-51.536-8.622-14.11-20.554-34.51-23.017-39.37-11.348-22.4-23.215-58.62-27.165-82.92-4.329-26.63-4.936-35.46-4.991-72.67l-0.055-36.66,8-11.791c27.748-40.898,61.202-77.983,89-98.658,13.517-10.054,36.955-24.516,51.335-31.675,17.025-8.4765,57.168-22.899,80.851-29.048l11.58-3.0067,11.117,3.1629c12.751,3.6277,45.729,14.865,59.367,20.229,14.555,5.7247,24.624,10.628,40.25,19.598,35.801,20.553,56.932,38.238,86.109,72.064,15.788,18.304,40.07,52.608,41.998,59.333,2.1308,7.4295,0.62022,74.346-2.1022,93.126-4.82,33.251-9.0454,50.168-19.356,77.5-5.7387,15.212-15.498,34.62-22.627,45-0.94441,1.375-3.4138,5.5635-5.4875,9.3078-8.1333,14.685-39.647,56.918-43.244,57.953-0.98459,0.28322-8.9902,2.834-17.79,5.6683-24.804,7.9889-46.169,13.959-60.954,17.032-28.09,5.839-40.458,7.0505-70.826,6.9382-23.283-0.0861-29.461-0.44388-42.72-2.4738zm-53.013-52.923c3.9148-0.82352,13.358-3.9699,20.986-6.992,17.94-7.12,23.56-8.52,34.14-8.52,10.259,0,25.521,3.3168,34.152,7.4216,7.0791,3.367,8.9127,3.1604,27.65-3.1165l13.424-4.4969,12.576,0.40443c13.293,0.42749,17.757,1.45,30.576,7.0037,13.945,6.0413,29.692,10.415,32.97,9.1568,2.0761-0.79668,1.9364-4.0938-0.22032-5.2014-0.9625-0.49432-4.9611-1.1547-8.8857-1.4674-6.4515-0.51412-17.986-3.753-25.864-7.2623-10.759-4.7927-15.141-5.7783-27.42-6.1675-9.0054-0.28541-13.679,0.005-17,1.0546-2.5192,0.7965-6.3804,1.76-8.5804,2.1411-2.2,0.38112-7.9853,2.0794-12.856,3.7739l-8.8563,3.081-10.644-3.3639c-5.854-1.8502-11.109-3.6978-11.678-4.1059-2.0085-1.4408-14.095-2.8401-24.597-2.8476-11.403-0.008-12.384,0.25175-31.807,8.4227-8.9956,3.7842-11.488,4.4053-19.905,4.9594-6.3819,0.42019-10.411,3.3948-8.2023,6.0558,1.5741,1.8966,1.2958,1.895,10.032,0.0572zm201.95-14.86c-0.12232-4.0828-2.4417-13.344-3.7307-14.896-0.71217-0.85774-3.4122-1.7631-6-2.0119-2.59-0.25-7.41-1.59-10.71-2.97-24.54-10.26-27.52-11.14-37.5-11.09-5.225,0.0238-13.101,0.75021-17.502,1.6143-9.1134,1.7893-22.209,6.2358-24.623,8.3606-2.1952,1.9321-2.2948,13.784-0.13393,15.945,0.82009,0.82009,1.7763,1.3355,2.125,1.1454,10.258-5.5935,21.592-7.8784,39.26-7.9148,13.252-0.0273,13.911,0.0745,24,3.7081,22.932,8.2592,32.259,11.252,33.535,10.763,0.73656-0.28264,1.3103-1.4782,1.275-2.6569zm-192.82-1.2079c5.1623-1.9607,10.736-4.051,12.386-4.6451,1.65-0.59408,3.45-1.419,4-1.833,3.28-2.48,12.68-3.96,25.08-3.96,14.467,0,25.425,1.6618,33.301,5.0501,7.3132,3.146,8.1052,2.5081,8.1052-6.5285,0-8.99-0.66667-9.8153-10.644-13.176-17.232-5.8037-31.052-5.2894-48.057,1.7882-5.1086,2.1261-9.8532,3.8685-10.544,3.8719-0.69039,0.003-2.6052,0.73185-4.2552,1.6188-1.65,0.88696-6.296,1.9527-10.324,2.3683-4.0284,0.41561-7.7759,1.2071-8.3277,1.7589-1.8084,1.8084-4.3826,13.412-3.4909,15.736,0.83101,2.1656,2.2534,1.9367,12.757-2.0527zm3.88-42.04c20.768-3.0552,34.817-7.1568,32.292-9.4274-0.43581-0.39193-4.0006-1.6675-7.9217-2.8345-7.8259-2.3292-16.344-7.9848-22.733-15.094-9.6265-10.712-13.266-26.717-10.401-45.739,0.89506-5.9427,3.0621-15.98,4.8157-22.305,4.5416-16.381,5.8725-22.801,5.9083-28.5,0.0586-9.3358-6.0063-15.151-14.877-14.264-2.53,0.25-11.79,3.27-20.59,6.7-26.39,10.3-28.86,11.06-36.08,11.06-10.95,0-16.914-4.341-19.561-14.239-1.0633-3.9755-0.99499-6.073,0.44182-13.568,3.1023-16.183,1.5966-17.428-5.0405-4.1656-12.343,24.664-12.925,41.281-1.6715,47.706,5.0515,2.884,17.521,6.9738,23.912,7.8427,2.75,0.37388,5.7875,1.0881,6.75,1.5872,2.3254,1.2057,2.2254,5.0968-0.18712,7.2801-1.849,1.6733-2.3585,1.6541-11.196-0.42063-5.0923-1.1955-10.498-2.8147-12.013-3.5981-1.512-0.78-3.674-1.42-4.801-1.42-2.7588,0-2.7284,3.9665,0.07472,9.7569,4.529,9.3556,12.428,13.877,26.679,15.273,8.2626,0.80901,10.525,2.3875,9.9895,6.9694-0.25446,2.1765-0.84956,2.5411-4.5877,2.8106-2.3624,0.17034-7.9874-0.67365-12.5-1.8755-14.43-3.8432-16.881-2.5988-9.7164,4.9329,5.9861,6.2927,11.307,8.2672,23.917,8.8748,10.97,0.54,14.1,1.71,14.1,5.27,0,0.92951-0.89238,2.4976-1.9831,3.4847-1.7263,1.5623-3.1183,1.7063-10.75,1.1122-15.032-1.1701-15.554-1.1629-16.028,0.22249-0.65082,1.9012,8.2611,10.072,13.526,12.401,3.1328,1.3858,7.5285,2.1256,14.608,2.4587,12.15,0.58,15.62,1.66,15.62,4.88,0,3.83-2.56,5.45-8.63,5.45-3.0172,0-7.5142-0.51078-9.9935-1.1351-8.4975-2.1397-7.933,3.4135,0.8647,8.5068,10.796,6.2502,24.687,7.4218,47.757,4.0278zm90.03-1.65c1.061-2.3375,1.939-5.3923,1.9511-6.7884,0.026-3.0077-3.2155-12.599-4.7902-14.174-3.1059-3.1059-7.9034,8.955-6.7148,16.881,0.69564,4.6389,3.3885,8.3313,6.0759,8.3313,0.85295,0,2.4157-1.9096,3.478-4.25zm116.26,2.1175c10.3-1.73,20.71-7.71,20.71-11.9,0-2.7816-1.3516-3.1102-6.0192-1.4633-5.0888,1.7954-16.097,1.977-17.781,0.29321-0.66-0.66-1.2-2.4711-1.2-4.0248,0-3.5679,2.8401-4.7752,11.233-4.7752,11.517,0,18.269-1.7956,24.781-6.5896,5.3996-3.9749,8.3275-8.4016,6.6601-10.069-0.31106-0.31107-3.4395-0.0651-6.952,0.54657-8.008,1.3945-16.263,1.4284-18.788,0.077-2.2708-1.2153-2.5554-5.2008-0.51701-7.2392,0.9638-0.96381,4.8832-1.6017,12.25-1.9938,13.134-0.69904,18.112-2.5834,24.149-9.1425,6.9482-7.548,4.4645-8.6828-10.178-4.6502-4.3239,1.1908-9.7239,2.0291-12,1.863-3.8145-0.27841-4.162-0.54352-4.4395-3.3872-0.42372-4.3421,1.5589-5.5411,10.684-6.461,13.659-1.377,21.687-6.3933,26.226-16.388,3.3967-7.4784,1.652-10.649-4.1509-7.5433-3.5094,1.8782-21.179,6.0429-23.079,5.4398-2.2603-0.71739-3.5655-5.1513-2.1686-7.3667,0.58774-0.9321,3.2353-1.9168,6.369-2.3689,7.6681-1.1062,18.644-4.5024,24.153-7.4733,11.413-6.1553,11.741-20.28,1.0362-44.647-3.9993-9.1034-6.1834-12.528-8.0195-12.574-1.5284-0.0384-1.5941,2.3457-0.19203,6.9752,2.1374,7.0575,2.9949,16.083,1.9106,20.11-1.1986,4.4512-5.9296,10.295-10.067,12.434-1.6683,0.86271-5.6503,1.4489-9.8422,1.4489-5.659,0-8.857-0.6964-16.3-3.5495-41.066-15.742-41.914-15.973-47.721-12.97-8.3108,4.2977-9.1951,12.781-3.5169,33.738,6.25,23.02,7.49,29.96,7.49,41.9,0,8.2772-0.51981,12.898-2.0161,17.922-4.3761,14.694-19.261,28.527-34.343,31.915-4.7107,1.0584-6.5118,2.5599-4.9474,4.1243,2.0766,2.0766,29.736,7.4759,47.306,9.2345,4.1548,0.41585,11.309-0.12604,19.284-1.4606zm-133.85-0.76105c0.30373-0.49144-0.13409-2.8388-0.97293-5.2163-1.8922-5.363-1.325-8.1676,3.6641-18.118,2.13-4.25,3.87-8.19,3.87-8.75s-2.01-1.02-4.47-1.02c-4.1005,0-4.9649-0.48067-10.34-5.75-7.3776-7.2318-10.19-14.016-10.173-24.538,0.0162-9.8645,1.6086-15.076,9.2317-30.212,3.6008-7.15,6.8477-14.43,7.2152-16.177,0.36748-1.7474,1.7873-4.2962,3.1551-5.664,1.4877-1.4877,3.6163-6.0598,5.2979-11.38,1.546-4.8909,3.317-9.8381,3.9354-10.994,0.90908-1.6986,0.65075-3.1723-1.3487-7.6934-3.3511-7.5773-5.4926-7.5161-5.5158,0.1577-0.0229,7.5721-2.2053,17.434-5.3665,24.25-2.3464,5.059-5.8508,9.7792-20.877,28.121-3.2861,4.0111-6.115,8.741-7.1768,12-3.0375,9.3224-4.3607,9.7501-12.562,4.0603-7.2371-5.0208-11.555-10.832-13.066-17.586-1.0213-4.5635-0.93281-7.5069,0.5431-18.07,0.96971-6.9399,1.5533-15.148,1.2969-18.24-0.39383-4.7491-0.95807-6.061-3.6358-8.4535-1.98-1.78-4.29-2.84-6.16-2.84-3.7032,0-3.8482,1.7054-0.57566,6.7714,1.3247,2.0507,2.7132,5.2037,3.0856,7.0066,0.70678,3.422-0.65591,13.816-3.0445,23.222-8.2493,32.485-9.6248,42.431-7.5308,54.456,2.0756,11.919,7.3293,19.476,18.109,26.049,5.6089,3.42,19.473,8.4772,23.349,8.5173,3.1665,0.0328,10.715,3.7121,14.122,6.8836,4.7515,4.4226,12.665,10.094,14.085,10.094,0.71344,0,1.5457-0.40208,1.8494-0.89352zm32.06-0.96c1.65-1.0112,6.15-4.3723,10-7.469,5.8382-4.6959,8.1618-5.8933,14-7.2143,23.576-5.3347,35.871-14.155,41.077-29.471,1.4053-4.1341,1.8514-8.2318,1.7963-16.5-0.0657-9.8502-0.62893-13.195-5.3886-32-4.2376-16.743-5.3324-22.723-5.3998-29.5-0.0773-7.7644,0.16159-8.8628,2.7601-12.692,3.1728-4.6759,2.8604-6.3077-1.2075-6.3077-3.9064,0-8.8631,5.4064-9.6854,10.564-0.39514,2.4786,0.19926,9.3056,1.5237,17.5,2.4927,15.423,2.1986,19.304-2.0233,26.696-3.32,5.82-13.74,14.24-17.61,14.24-2.46,0-4.34-2.61-4.34-6.01,0-3.3599-4.3028-9.8758-13.602-20.597-16.052-18.508-19.347-25.234-20.161-41.146-0.55269-10.805-1.6312-12.662-4.6463-8-2.3383,3.615-2.9053,7.5308-1.7437,12.041,0.59635,2.3152,1.8576,7.5625,2.8027,11.661,1.6026,6.9492,5.0829,14.572,15.09,33.049,6.1121,11.286,8.2623,18.821,8.2508,28.915-0.008,7.0829-0.45575,9.5471-2.5588,14.085-3.9848,8.5978-12.041,16-17.413,16-3.2012,0-3.4284,2.4411-0.66855,7.1831,1.3818,2.3743,3.4687,6.7603,4.6376,9.7467,2.0248,5.1733,2.0501,5.6595,0.53523,10.291-2.2516,6.884-1.2443,8.1334,3.9774,4.9331zm-24.025-40.596c4.2185-1.2696,5.3306-1.2601,9.2754,0.0792,5.394,1.8313,8.5674,1.1879,11.97-2.4271,4.6851-4.9769,7.2583-11.987,7.269-19.803,0.0123-8.9242-1.6496-13.778-11.334-33.104-4.1886-8.3583-7.9058-17.011-8.2604-19.229-0.8899-5.5651-2.7321-7.9078-5.0873-6.4692-2.81,1.7165-3.0823,14.541-0.42239,19.895,4.6095,9.2792,6.2949,14.369,6.7884,20.5,0.45353,5.6345,0.12049,7.4987-2.5011,14-1.6634,4.125-3.3326,8.7414-3.7095,10.259-1.0937,4.4034-7.464,5.093-7.464,0.80795,0-0.99842,1.575-5.7221,3.5-10.497,1.925-4.775,3.5-10.399,3.5-12.498,0-3.976-4.342-18.574-6.1852-20.795-1.8902-2.2775-4.7318-1.4941-5.344,1.4732-0.31204,1.5125-2.1605,6.1005-4.1077,10.196-7.8714,16.554-9.3448,27.712-4.9222,37.276,2.6495,5.7297,4.9704,8.7677,8.0715,10.565,2.5902,1.5016,3.2689,1.4842,8.963-0.22947zm-33.1-60.3c0.7853-1.5125,4.2844-6.5937,7.7757-11.292,7.1199-9.5803,12.448-19.953,11.507-22.404-2.4157-6.2952-20.752,17.662-23.311,30.457-1.1638,5.8192,1.5544,8.0046,4.0286,3.239zm81.62,1.15c0-7.7036-8.1843-23.368-16.208-31.021-12.393-11.821-9.3756,1.0662,4.7174,20.15,9.23,12.51,11.49,14.64,11.49,10.87zm-74.33-38.65c2.1862-2.3375,5.9223-5.8333,8.3023-7.7684,3.985-3.24,4.3637-3.9574,4.7875-9.0679,0.2728-3.2897-0.23817-8.6886-1.2548-13.258-2.5302-11.373-0.78704-17.377,8.7587-30.17,2.4562-3.2919,4.9943-7.6184,5.64-9.6144,1.3747-4.249,4.4207-7.3451,6.4575-6.5635,0.78826,0.30248,2.1818,2.8039,3.0969,5.5588,0.91501,2.7548,2.9494,6.6267,4.5209,8.6042,5.5117,6.9355,8.9372,13.101,10.4,18.718,1.2771,4.9032,1.2886,6.4538,0.0854,11.49-0.765,3.2021-1.4069,9.0095-1.4265,12.905-0.0337,6.7081,0.13338,7.2378,3.1546,10,1.7546,1.6042,5.5871,5.328,8.5167,8.2753,4.0012,4.0254,5.6441,5.095,6.6032,4.299,0.70221-0.58278,2.0731-5.4692,3.0464-10.859,0.97331-5.3894,2.415-11.824,3.2036-14.299,0.78867-2.475,1.7235-6.75,2.0774-9.5,0.35392-2.75,1.2304-6.1671,1.9478-7.5936,0.71736-1.4265,1.6122-5.0265,1.9885-8,0.37633-2.9735,1.2343-6.7639,1.9066-8.423,0.67232-1.6591,1.5357-5.2591,1.9186-8,0.38288-2.7409,1.3334-7.9084,2.1123-11.483,0.77888-3.575,2.3863-11.675,3.572-18,2.5475-13.589,3.9752-17.423,8.061-21.644,4.1858-4.325,3.4926-6.4231-2.879-8.7135-6.0888-2.1888-9.033-1.7151-13.358,2.1489-2.6998,2.4122-3.1804,3.6658-3.9213,10.229-0.46447,4.1139-1.0919,8.1548-1.3942,8.9798-0.52185,1.4238-3.4862,19.341-5.708,34.5-1.2804,8.7365-3.0494,11.732-6.6784,11.31-4.3322-0.5038-4.9283-4.1508-2.378-14.55,1.1947-4.8716,2.1776-10.186,2.1841-11.809,0.007-1.6234,0.66415-5.4027,1.4614-8.3984,0.79724-2.9957,1.9493-8.8457,2.5602-13,0.61084-4.1543,1.7532-9.7724,2.5386-12.485,0.78539-2.7123,1.428-6.9018,1.428-9.3099,0-3.8989-0.56339-4.9741-5.1451-9.8185-3.2-3.39-5.98-5.45-7.35-5.45-2.1237,0-2.222,0.45897-2.839,13.25-0.35148,7.2875-1.0766,15.725-1.6114,18.75s-1.4505,12.224-2.0349,20.442c-0.8051,11.322-1.4589,15.38-2.6986,16.75-2.2618,2.4992-4.9835,2.2603-6.859-0.602-1.702-2.5976-1.9202,1.1486,3.022-51.881,0.95298-10.225,1.07-15.675,0.37929-17.657-1.33-3.8-12.01-13.05-15.08-13.05-1.5226,0-4.76,2.2343-9.079,6.2658-7.853,7.3304-7.6424,6.1288-5.2006,29.662,4.1164,39.673,4.242,41.498,3.1033,45.072-0.84699,2.6581-1.7372,3.5723-3.7008,3.8006-4.025,0.46788-5.2064-2.0119-6.0135-12.622-0.40493-5.3234-1.5138-17.779-2.4642-27.679-0.95038-9.9-1.7749-20.7-1.8323-24-0.0904-5.1984-0.37156-6.0374-2.1044-6.2798-1.2577-0.17598-3.7454,1.3976-6.7027,4.2396-5.5236,5.3083-6.5696,8.9944-4.9245,17.354,1.3253,6.7344,2.5389,13.297,4.103,22.187,1.6682,9.4818,3.7658,20.516,5.4178,28.5,1.6294,7.8748,0.69236,11.769-2.958,12.294-3.887,0.55863-5.6679-3.1134-7.5468-15.561-3.9494-26.163-7.0541-44.538-7.9022-46.769-1.2487-3.2844-5.6598-5.919-9.9077-5.9177-4.5843,0.001-9.868,2.1913-11.174,4.631-0.8342,1.5587-0.45245,2.3937,2.109,4.6128,4.0756,3.531,5.7754,7.633,7.9598,19.21,0.98591,5.225,2.56,13.55,3.498,18.5,0.93797,4.95,2.3406,10.815,3.1169,13.033,0.7763,2.2184,1.4115,5.2402,1.4115,6.7151s0.74062,4.8348,1.6458,7.4666c0.9052,2.6317,2.2182,7.71,2.9178,11.285s1.732,8.3,2.2943,10.5c2.2119,8.6541,5.1734,23.114,5.1581,25.185-0.021,2.8468,1.6926,7.3151,2.8054,7.3151,0.47903,0,2.6597-1.9125,4.846-4.25zm34.045-19.672c0.98477-1.057,3.1373-4.5445,4.7833-7.75,4.1697-8.12,3.97-12.978-0.90137-21.917-5.2098-9.5602-6.0867-10.368-8.5533-7.8794-3.58,3.6-9.05,15.39-9.05,19.47,0,6.0421,7.783,20,11.152,20,0.42346,0,1.5756-0.86483,2.5604-1.9218z"/>
  <path id="path2989" fill="#000001" d="m137.24,447.42c-3.7039-1.9063-5.0657-5.4985-3.3136-8.7403,4.5315-8.3841,5.9686-11.603,6.5528-14.676,1.5783-8.3029,4.8338-17.103,6.8491-18.515,1.16-0.81,4.19-1.48,6.72-1.48,6.0633,0,28.74-7.0474,32.553-10.117,3.5006-2.8176,13.348-4.8349,23.716-4.8584,9.6304-0.0219,10.787-0.2115,10.497-1.7204-0.17963-0.93272-1.8496-2.5853-3.711-3.6724-3.2998-1.9272-3.5497-1.9327-9.9967-0.22141-3.6368,0.96535-7.2874,2.3429-8.1124,3.0612-0.825,0.71829-3.075,1.6083-5,1.9778-1.925,0.36952-8,1.7677-13.5,3.107-22.48,5.4742-37.66,6.6446-50.675,3.9068-15.13-3.1827-22.786-8.5539-28.186-19.773-2.4779-5.1488-4.8995-8.4074-8.5301-11.479-5.8387-4.9391-9.6093-10.85-11.451-17.951-0.70989-2.7367-2.8922-6.9522-4.8495-9.3678-5.315-6.58-6.8-10.16-6.8-16.42,0-4.5164-0.55527-6.4401-2.8287-9.7997-3.9549-5.8444-6.1112-11.812-6.8612-18.987-0.44277-4.2362-1.5277-7.5438-3.4889-10.636-3.572-5.63-4.815-10.05-4.791-17.05,0.0283-8.2484,1.5111-13.343,7.5677-26,5.4041-11.294,7.8486-15.421,13.969-23.584,1.6869-2.2498,4.0946-6.9763,5.3504-10.503,4.303-12.09,4.209-11.92,6.582-11.92,4.509,0,4.9539,1.9642,3.5797,15.807-1.265,12.743-2.0186,18.144-4.2132,30.193-1.4656,8.047-0.61229,12.98,2.8428,16.435,2.4084,2.4084,3.299,2.6409,9.4309,2.4618,3.7243-0.10875,8.029-0.78965,9.5662-1.5131,4.43-2.1,23.58-9.39,24.62-9.39,0.52084,0,2.7963-0.84244,5.0565-1.8721,2.2602-1.0296,8.1347-3.1111,13.054-4.6255,7.6104-2.3426,9.9791-2.6573,15.877-2.1091,4.3538,0.40464,8.1182,0.2154,10.121-0.50881,4.2511-1.5372,9.7461,1.0133,13.577,6.3019,3.7665,5.1995,4.4776,12.431,2.5382,25.814-2.2362,15.431-2.0416,19.687,1.1918,26.071,4.1252,8.1443,5.6252,7.3008,6.3502-3.5707,0.59282-8.8899,3.247-19.403,6.4741-25.644,1.8276-3.5342,1.5136-9.7606-1.0016-19.856-0.75361-3.025-1.8652-7.975-2.4703-11-0.60507-3.025-2.0179-9.325-3.1396-14-2.6989-11.248-4.5884-19.677-14.57-65-3.0047-13.643-3.4238-14.884-6.0991-18.063-2.58-3.0662-2.8187-3.1356-8.5509-2.4871-6.3471,0.71809-8.7424-0.2522-8.7424-3.5414,0-1.7846,8.0798-7.7099,13.934-10.218,1.4113-0.60475,4.3867-2.3677,6.6119-3.9177,4.6024-3.2058,12.882-4.684,16.222-2.8963,2.8409,1.5204,4.1224,0.78113,8.4327-4.8647,2.0355-2.6663,5.8605-6.3093,8.5-8.0956s6.0997-4.7849,7.6893-6.6637c2.8194-3.332,3.028-3.4002,8.5-2.7773l5.62,0.654,5.97-6.056c3.96-4.024,6.76-6.057,8.34-6.057,1.552,0,4.4917,2.0879,8.5313,6.0595l6.1633,6.0595,5.2942-0.63695c5.0806-0.61125,5.4235-0.49917,8.5,2.7778,1.7632,1.8781,5.3054,4.8335,7.8715,6.5675s5.7161,4.542,7,6.2398c5.7554,7.6113,6.1958,7.8823,10.878,6.6939,5.164-1.3108,11.802,0.14969,16.02,3.5248,1.5222,1.2178,6.3767,4.1771,10.788,6.5763,8.526,4.6371,9.7818,6.0856,8.062,9.299-0.96668,1.8063-1.6973,1.9444-7.0182,1.3268-10.28-1.1931-11.505,0.76014-16.948,27.012-1.2542,6.05-4.7258,21.8-7.7147,35-2.9888,13.2-5.8893,26.25-6.4456,29-0.55626,2.75-1.6168,7.051-2.3569,9.5578-0.74002,2.5068-1.6382,6.5568-1.996,9-0.35779,2.4432-1.3174,6.8339-2.1324,9.7571-1.4057,5.042-1.3661,5.6068,0.77148,11,1.2393,3.1268,2.6582,6.2155,3.153,6.8638,1.2562,1.6457,3.9012,19.933,3.2711,22.616-1.3905,5.9224,4.0775,6.1355,6.8409,0.26668,2.6931-5.7195,3.0809-12.857,1.2666-23.312-3.135-18.065-1.7389-26.594,5.3269-32.539,3.6041-3.0326,8.5952-4.3476,10.5-2.7665,0.90496,0.75105,3.9754,0.90199,9.3056,0.45747,8.5888-0.71627,12.836,0.31954,33.262,8.1117,4.675,1.7834,9.625,3.5726,11,3.976,2.4595,0.72145,6.0916,2.179,13,5.2167,5.3116,2.3356,14.997,3.2852,18.002,1.7649,6.904-3.4929,7.6308-7.5966,4.5622-25.76-2.6416-15.636-4.1386-33.327-3.0976-36.607,0.75003-2.3631,4.6648-2.8963,6.2717-0.85408,0.54095,0.6875,2.1179,4.6713,3.5042,8.8528,1.5708,4.7376,4.4074,10.202,7.5272,14.5,5.7795,7.9622,15.567,26.801,17.759,34.184,3.3756,11.367,2.4206,22.5-2.6016,30.326-2.3511,3.6639-3.3568,6.6595-3.9144,11.659-0.84009,7.5333-2.2864,11.476-6.8287,18.614-2.6547,4.1722-3.0227,5.5161-2.5182,9.1969,0.64325,4.693-1.7042,10.585-6.1419,15.417-2.895,3.1519-5.0518,7.5183-5.8926,11.929-0.95211,4.9949-5.9778,12.269-12.077,17.479-3.0363,2.594-5.6228,5.7436-6.0126,7.3217-0.37625,1.5232-2.0932,4.9755-3.8153,7.6719-8.4916,13.295-30.854,19.365-55.346,15.023-16.084-2.8512-18.437-3.1448-18.921-2.3614-0.85007,1.3754,10.07,6.5549,18.675,8.8576,4.6005,1.2311,9.4896,2.5503,10.865,2.9316,2.8453,0.78901,5.5229,5.5904,6.4948,11.647,1.034,6.4428,4.578,16.518,7.1362,20.288,3.0598,4.5088,2.9858,5.7489-0.55406,9.2888-2.5824,2.5824-3.6236,2.9231-8.9346,2.9231-9.0029,0-18.311-2.308-33.902-8.406-23.386-9.147-33.661-9.3483-55.74-1.0921-13.87,5.1864-20.085,5.1267-34.653-0.33295-20.906-7.8348-33.134-7.7867-52.652,0.20725-21.679,8.879-36.089,11.576-42.959,8.0403zm14.751-5.9138c3.9148-0.82352,13.358-3.9699,20.986-6.992,17.94-7.12,23.56-8.52,34.14-8.52,10.259,0,25.521,3.3168,34.152,7.4216,7.0791,3.367,8.9127,3.1604,27.65-3.1165l13.424-4.4969,12.576,0.40443c13.293,0.42749,17.757,1.45,30.576,7.0037,13.945,6.0413,29.692,10.415,32.97,9.1568,2.0761-0.79668,1.9364-4.0938-0.22032-5.2014-0.9625-0.49432-4.9611-1.1547-8.8857-1.4674-6.4515-0.51412-17.986-3.753-25.864-7.2623-10.759-4.7927-15.141-5.7783-27.42-6.1675-9.0054-0.28541-13.679,0.005-17,1.0546-2.5192,0.7965-6.3804,1.76-8.5804,2.1411-2.2,0.38112-7.9853,2.0794-12.856,3.7739l-8.8563,3.081-10.644-3.3639c-5.854-1.8502-11.109-3.6978-11.678-4.1059-2.0085-1.4408-14.095-2.8401-24.597-2.8476-11.403-0.008-12.384,0.25175-31.807,8.4227-8.9956,3.7842-11.488,4.4053-19.905,4.9594-6.3819,0.42019-10.411,3.3948-8.2023,6.0558,1.5741,1.8966,1.2958,1.895,10.032,0.0572zm201.95-14.86c-0.12232-4.0828-2.4417-13.344-3.7307-14.896-0.71217-0.85774-3.4122-1.7631-6-2.0119-2.59-0.25-7.41-1.59-10.71-2.97-24.54-10.26-27.52-11.14-37.5-11.09-5.225,0.0238-13.101,0.75021-17.502,1.6143-9.1134,1.7893-22.209,6.2358-24.623,8.3606-2.1952,1.9321-2.2948,13.784-0.13393,15.945,0.82009,0.82009,1.7763,1.3355,2.125,1.1454,10.258-5.5935,21.592-7.8784,39.26-7.9148,13.252-0.0273,13.911,0.0745,24,3.7081,22.932,8.2592,32.259,11.252,33.535,10.763,0.73656-0.28264,1.3103-1.4782,1.275-2.6569zm-192.82-1.2079c5.1623-1.9607,10.736-4.051,12.386-4.6451,1.65-0.59408,3.45-1.419,4-1.833,3.28-2.48,12.68-3.96,25.08-3.96,14.467,0,25.425,1.6618,33.301,5.0501,7.3132,3.146,8.1052,2.5081,8.1052-6.5285,0-8.99-0.66667-9.8153-10.644-13.176-17.232-5.8037-31.052-5.2894-48.057,1.7882-5.1086,2.1261-9.8532,3.8685-10.544,3.8719-0.69039,0.003-2.6052,0.73185-4.2552,1.6188-1.65,0.88696-6.296,1.9527-10.324,2.3683-4.0284,0.41561-7.7759,1.2071-8.3277,1.7589-1.8084,1.8084-4.3826,13.412-3.4909,15.736,0.83101,2.1656,2.2534,1.9367,12.757-2.0527zm132.39-39.437c0.34055-0.55103-0.60105-1.4658-2.0925-2.0328-2.9712-1.1297-7.5304-0.10004-8.1795,1.8472-0.49594,1.4878,9.3572,1.6659,10.272,0.18563zm-128.51-2.6c20.768-3.0552,34.817-7.1568,32.292-9.4274-0.43581-0.39193-4.0006-1.6675-7.9217-2.8345-7.8259-2.3292-16.344-7.9848-22.733-15.094-9.6265-10.712-13.266-26.717-10.401-45.739,0.89506-5.9427,3.0621-15.98,4.8157-22.305,4.5416-16.381,5.8725-22.801,5.9083-28.5,0.0586-9.3358-6.0063-15.151-14.877-14.264-2.53,0.25-11.79,3.27-20.59,6.7-26.39,10.3-28.86,11.06-36.08,11.06-10.95,0-16.914-4.341-19.561-14.239-1.0633-3.9755-0.99499-6.073,0.44182-13.568,3.1023-16.183,1.5966-17.428-5.0405-4.1656-12.343,24.664-12.925,41.281-1.6715,47.706,5.0515,2.884,17.521,6.9738,23.912,7.8427,2.75,0.37388,5.7875,1.0881,6.75,1.5872,2.3254,1.2057,2.2254,5.0968-0.18712,7.2801-1.849,1.6733-2.3585,1.6541-11.196-0.42063-5.0923-1.1955-10.498-2.8147-12.013-3.5981-1.512-0.78-3.674-1.42-4.801-1.42-2.7588,0-2.7284,3.9665,0.07472,9.7569,4.529,9.3556,12.428,13.877,26.679,15.273,8.2626,0.80901,10.525,2.3875,9.9895,6.9694-0.25446,2.1765-0.84956,2.5411-4.5877,2.8106-2.3624,0.17034-7.9874-0.67365-12.5-1.8755-14.43-3.8432-16.881-2.5988-9.7164,4.9329,5.9861,6.2927,11.307,8.2672,23.917,8.8748,10.97,0.54,14.1,1.71,14.1,5.27,0,0.92951-0.89238,2.4976-1.9831,3.4847-1.7263,1.5623-3.1183,1.7063-10.75,1.1122-15.032-1.1701-15.554-1.1629-16.028,0.22249-0.65082,1.9012,8.2611,10.072,13.526,12.401,3.1328,1.3858,7.5285,2.1256,14.608,2.4587,12.15,0.58,15.62,1.66,15.62,4.88,0,3.83-2.56,5.45-8.63,5.45-3.0172,0-7.5142-0.51078-9.9935-1.1351-8.4975-2.1397-7.933,3.4135,0.8647,8.5068,10.796,6.2502,24.687,7.4218,47.757,4.0278zm90.03-1.65c1.061-2.3375,1.939-5.3923,1.9511-6.7884,0.026-3.0077-3.2155-12.599-4.7902-14.174-3.1059-3.1059-7.9034,8.955-6.7148,16.881,0.69564,4.6389,3.3885,8.3313,6.0759,8.3313,0.85295,0,2.4157-1.9096,3.478-4.25zm116.26,2.1175c10.3-1.73,20.71-7.71,20.71-11.9,0-2.7816-1.3516-3.1102-6.0192-1.4633-5.0888,1.7954-16.097,1.977-17.781,0.29321-0.66-0.66-1.2-2.4711-1.2-4.0248,0-3.5679,2.8401-4.7752,11.233-4.7752,11.517,0,18.269-1.7956,24.781-6.5896,5.3996-3.9749,8.3275-8.4016,6.6601-10.069-0.31106-0.31107-3.4395-0.0651-6.952,0.54657-8.008,1.3945-16.263,1.4284-18.788,0.077-2.2708-1.2153-2.5554-5.2008-0.51701-7.2392,0.9638-0.96381,4.8832-1.6017,12.25-1.9938,13.134-0.69904,18.112-2.5834,24.149-9.1425,6.9482-7.548,4.4645-8.6828-10.178-4.6502-4.3239,1.1908-9.7239,2.0291-12,1.863-3.8145-0.27841-4.162-0.54352-4.4395-3.3872-0.42372-4.3421,1.5589-5.5411,10.684-6.461,13.659-1.377,21.687-6.3933,26.226-16.388,3.3967-7.4784,1.652-10.649-4.1509-7.5433-3.5094,1.8782-21.179,6.0429-23.079,5.4398-2.2603-0.71739-3.5655-5.1513-2.1686-7.3667,0.58774-0.9321,3.2353-1.9168,6.369-2.3689,7.6681-1.1062,18.644-4.5024,24.153-7.4733,11.413-6.1553,11.741-20.28,1.0362-44.647-3.9993-9.1034-6.1834-12.528-8.0195-12.574-1.5284-0.0384-1.5941,2.3457-0.19203,6.9752,2.1374,7.0575,2.9949,16.083,1.9106,20.11-1.1986,4.4512-5.9296,10.295-10.067,12.434-1.6683,0.86271-5.6503,1.4489-9.8422,1.4489-5.659,0-8.857-0.6964-16.3-3.5495-41.066-15.742-41.914-15.973-47.721-12.97-8.3108,4.2977-9.1951,12.781-3.5169,33.738,6.25,23.02,7.49,29.96,7.49,41.9,0,8.2772-0.51981,12.898-2.0161,17.922-4.3761,14.694-19.261,28.527-34.343,31.915-4.7107,1.0584-6.5118,2.5599-4.9474,4.1243,2.0766,2.0766,29.736,7.4759,47.306,9.2345,4.1548,0.41585,11.309-0.12604,19.284-1.4606zm-133.85-0.76105c0.30373-0.49144-0.13409-2.8388-0.97293-5.2163-1.8922-5.363-1.325-8.1676,3.6641-18.118,2.13-4.25,3.87-8.19,3.87-8.75s-2.01-1.02-4.47-1.02c-4.1005,0-4.9649-0.48067-10.34-5.75-7.3776-7.2318-10.19-14.016-10.173-24.538,0.0162-9.8645,1.6086-15.076,9.2317-30.212,3.6008-7.15,6.8477-14.43,7.2152-16.177,0.36748-1.7474,1.7873-4.2962,3.1551-5.664,1.4877-1.4877,3.6163-6.0598,5.2979-11.38,1.546-4.8909,3.317-9.8381,3.9354-10.994,0.90908-1.6986,0.65075-3.1723-1.3487-7.6934-3.3511-7.5773-5.4926-7.5161-5.5158,0.1577-0.0229,7.5721-2.2053,17.434-5.3665,24.25-2.3464,5.059-5.8508,9.7792-20.877,28.121-3.2861,4.0111-6.115,8.741-7.1768,12-3.0375,9.3224-4.3607,9.7501-12.562,4.0603-7.2371-5.0208-11.555-10.832-13.066-17.586-1.0213-4.5635-0.93281-7.5069,0.5431-18.07,0.96971-6.9399,1.5533-15.148,1.2969-18.24-0.39383-4.7491-0.95807-6.061-3.6358-8.4535-1.98-1.78-4.29-2.84-6.16-2.84-3.7032,0-3.8482,1.7054-0.57566,6.7714,1.3247,2.0507,2.7132,5.2037,3.0856,7.0066,0.70678,3.422-0.65591,13.816-3.0445,23.222-8.2493,32.485-9.6248,42.431-7.5308,54.456,2.0756,11.919,7.3293,19.476,18.109,26.049,5.6089,3.42,19.473,8.4772,23.349,8.5173,3.1665,0.0328,10.715,3.7121,14.122,6.8836,4.7515,4.4226,12.665,10.094,14.085,10.094,0.71344,0,1.5457-0.40208,1.8494-0.89352zm32.06-0.96c1.65-1.0112,6.15-4.3723,10-7.469,5.8382-4.6959,8.1618-5.8933,14-7.2143,23.576-5.3347,35.871-14.155,41.077-29.471,1.4053-4.1341,1.8514-8.2318,1.7963-16.5-0.0657-9.8502-0.62893-13.195-5.3886-32-4.2376-16.743-5.3324-22.723-5.3998-29.5-0.0773-7.7644,0.16159-8.8628,2.7601-12.692,3.1728-4.6759,2.8604-6.3077-1.2075-6.3077-3.9064,0-8.8631,5.4064-9.6854,10.564-0.39514,2.4786,0.19926,9.3056,1.5237,17.5,2.4927,15.423,2.1986,19.304-2.0233,26.696-3.32,5.82-13.74,14.24-17.61,14.24-2.46,0-4.34-2.61-4.34-6.01,0-3.3599-4.3028-9.8758-13.602-20.597-16.052-18.508-19.347-25.234-20.161-41.146-0.55269-10.805-1.6312-12.662-4.6463-8-2.3383,3.615-2.9053,7.5308-1.7437,12.041,0.59635,2.3152,1.8576,7.5625,2.8027,11.661,1.6026,6.9492,5.0829,14.572,15.09,33.049,6.1121,11.286,8.2623,18.821,8.2508,28.915-0.008,7.0829-0.45575,9.5471-2.5588,14.085-3.9848,8.5978-12.041,16-17.413,16-3.2012,0-3.4284,2.4411-0.66855,7.1831,1.3818,2.3743,3.4687,6.7603,4.6376,9.7467,2.0248,5.1733,2.0501,5.6595,0.53523,10.291-2.2516,6.884-1.2443,8.1334,3.9774,4.9331zm-24.025-40.596c4.2185-1.2696,5.3306-1.2601,9.2754,0.0792,5.394,1.8313,8.5674,1.1879,11.97-2.4271,4.6851-4.9769,7.2583-11.987,7.269-19.803,0.0123-8.9242-1.6496-13.778-11.334-33.104-4.1886-8.3583-7.9058-17.011-8.2604-19.229-0.8899-5.5651-2.7321-7.9078-5.0873-6.4692-2.81,1.7165-3.0823,14.541-0.42239,19.895,4.6095,9.2792,6.2949,14.369,6.7884,20.5,0.45353,5.6345,0.12049,7.4987-2.5011,14-1.6634,4.125-3.3326,8.7414-3.7095,10.259-1.0937,4.4034-7.464,5.093-7.464,0.80795,0-0.99842,1.575-5.7221,3.5-10.497,1.925-4.775,3.5-10.399,3.5-12.498,0-3.976-4.342-18.574-6.1852-20.795-1.8902-2.2775-4.7318-1.4941-5.344,1.4732-0.31204,1.5125-2.1605,6.1005-4.1077,10.196-7.8714,16.554-9.3448,27.712-4.9222,37.276,2.6495,5.7297,4.9704,8.7677,8.0715,10.565,2.5902,1.5016,3.2689,1.4842,8.963-0.22947zm-33.1-60.3c0.7853-1.5125,4.2844-6.5937,7.7757-11.292,7.1199-9.5803,12.448-19.953,11.507-22.404-2.4157-6.2952-20.752,17.662-23.311,30.457-1.1638,5.8192,1.5544,8.0046,4.0286,3.239zm81.62,1.15c0-7.7036-8.1843-23.368-16.208-31.021-12.393-11.821-9.3756,1.0662,4.7174,20.15,9.23,12.51,11.49,14.64,11.49,10.87zm-74.33-38.65c2.1862-2.3375,5.9223-5.8333,8.3023-7.7684,3.985-3.24,4.3637-3.9574,4.7875-9.0679,0.2728-3.2897-0.23817-8.6886-1.2548-13.258-2.5302-11.373-0.78704-17.377,8.7587-30.17,2.4562-3.2919,4.9943-7.6184,5.64-9.6144,1.3747-4.249,4.4207-7.3451,6.4575-6.5635,0.78826,0.30248,2.1818,2.8039,3.0969,5.5588,0.91501,2.7548,2.9494,6.6267,4.5209,8.6042,5.5117,6.9355,8.9372,13.101,10.4,18.718,1.2771,4.9032,1.2886,6.4538,0.0854,11.49-0.765,3.2021-1.4069,9.0095-1.4265,12.905-0.0337,6.7081,0.13338,7.2378,3.1546,10,1.7546,1.6042,5.5871,5.328,8.5167,8.2753,4.0012,4.0254,5.6441,5.095,6.6032,4.299,0.70221-0.58278,2.0731-5.4692,3.0464-10.859,0.97331-5.3894,2.415-11.824,3.2036-14.299,0.78867-2.475,1.7235-6.75,2.0774-9.5,0.35392-2.75,1.2304-6.1671,1.9478-7.5936,0.71736-1.4265,1.6122-5.0265,1.9885-8,0.37633-2.9735,1.2343-6.7639,1.9066-8.423,0.67232-1.6591,1.5357-5.2591,1.9186-8,0.38288-2.7409,1.3334-7.9084,2.1123-11.483,0.77888-3.575,2.3863-11.675,3.572-18,2.5475-13.589,3.9752-17.423,8.061-21.644,4.1858-4.325,3.4926-6.4231-2.879-8.7135-6.0888-2.1888-9.033-1.7151-13.358,2.1489-2.6998,2.4122-3.1804,3.6658-3.9213,10.229-0.46447,4.1139-1.0919,8.1548-1.3942,8.9798-0.52185,1.4238-3.4862,19.341-5.708,34.5-1.2804,8.7365-3.0494,11.732-6.6784,11.31-4.3322-0.5038-4.9283-4.1508-2.378-14.55,1.1947-4.8716,2.1776-10.186,2.1841-11.809,0.007-1.6234,0.66415-5.4027,1.4614-8.3984,0.79724-2.9957,1.9493-8.8457,2.5602-13,0.61084-4.1543,1.7532-9.7724,2.5386-12.485,0.78539-2.7123,1.428-6.9018,1.428-9.3099,0-3.8989-0.56339-4.9741-5.1451-9.8185-3.2-3.39-5.98-5.45-7.35-5.45-2.1237,0-2.222,0.45897-2.839,13.25-0.35148,7.2875-1.0766,15.725-1.6114,18.75s-1.4505,12.224-2.0349,20.442c-0.8051,11.322-1.4589,15.38-2.6986,16.75-2.2618,2.4992-4.9835,2.2603-6.859-0.602-1.702-2.5976-1.9202,1.1486,3.022-51.881,0.95298-10.225,1.07-15.675,0.37929-17.657-1.33-3.8-12.01-13.05-15.08-13.05-1.5226,0-4.76,2.2343-9.079,6.2658-7.853,7.3304-7.6424,6.1288-5.2006,29.662,4.1164,39.673,4.242,41.498,3.1033,45.072-0.84699,2.6581-1.7372,3.5723-3.7008,3.8006-4.025,0.46788-5.2064-2.0119-6.0135-12.622-0.40493-5.3234-1.5138-17.779-2.4642-27.679-0.95038-9.9-1.7749-20.7-1.8323-24-0.0904-5.1984-0.37156-6.0374-2.1044-6.2798-1.2577-0.17598-3.7454,1.3976-6.7027,4.2396-5.5236,5.3083-6.5696,8.9944-4.9245,17.354,1.3253,6.7344,2.5389,13.297,4.103,22.187,1.6682,9.4818,3.7658,20.516,5.4178,28.5,1.6294,7.8748,0.69236,11.769-2.958,12.294-3.887,0.55863-5.6679-3.1134-7.5468-15.561-3.9494-26.163-7.0541-44.538-7.9022-46.769-1.2487-3.2844-5.6598-5.919-9.9077-5.9177-4.5843,0.001-9.868,2.1913-11.174,4.631-0.8342,1.5587-0.45245,2.3937,2.109,4.6128,4.0756,3.531,5.7754,7.633,7.9598,19.21,0.98591,5.225,2.56,13.55,3.498,18.5,0.93797,4.95,2.3406,10.815,3.1169,13.033,0.7763,2.2184,1.4115,5.2402,1.4115,6.7151s0.74062,4.8348,1.6458,7.4666c0.9052,2.6317,2.2182,7.71,2.9178,11.285s1.732,8.3,2.2943,10.5c2.2119,8.6541,5.1734,23.114,5.1581,25.185-0.021,2.8468,1.6926,7.3151,2.8054,7.3151,0.47903,0,2.6597-1.9125,4.846-4.25zm34.045-19.672c0.98477-1.057,3.1373-4.5445,4.7833-7.75,4.1697-8.12,3.97-12.978-0.90137-21.917-5.2098-9.5602-6.0867-10.368-8.5533-7.8794-3.58,3.6-9.05,15.39-9.05,19.47,0,6.0421,7.783,20,11.152,20,0.42346,0,1.5756-0.86483,2.5604-1.9218zm166.47-41.83c-2.8975-2.4941-1.3537-5.7161,3.4921-7.2882,2.1007-0.68153,7.3483-3.0026,11.662-5.1579,9.5487-4.7716,12.158-4.7401,12.158,0.14669,0,3.2792-0.29796,3.5718-6,5.8937-3.3,1.3438-8.863,3.7285-12.362,5.2995-3.4992,1.571-6.4869,2.8563-6.6392,2.8563-0.15232,0-1.1918-0.7875-2.31-1.75zm-333.69-6.04c-1.1-0.24305-3.125-1.2317-4.5-2.1969-4.5589-3.2004-12.872-6.998-14.196-6.4852-0.71729,0.27778-2.0316,1.7798-2.9207,3.3379-1.9416,3.4024-5.338,4.5385-7.4011,2.4754-2.2639-2.264-1.8878-3.8394,3.6116-15.128,4.0796-8.3742,5.6634-10.671,7.9534-11.536,2.4926-0.94086,2.8975-1.6627,3.156-5.6276,0.27698-4.2482,0.49452-4.5667,3.2966-4.8271,2.2855-0.21236,4.8132,1.0116,10.614,5.1393,9.5373,6.787,11.181,7.3444,13.835,4.6906,3.7455-3.7455,2.8125-5.4791-5.984-11.118-8.484-5.43-10.965-7.8-10.965-10.47,0-2.4686,1.539-4.0546,4.4602-4.5966,1.2938-0.24001,2.191-1.4921,2.639-3.6826,0.48236-2.3585,3.0288-5.6314,8.7991-11.309,6.6082-6.5025,8.6119-7.9318,10.76-7.675,1.4519,0.17353,3.1225,1.0866,3.7126,2.0291,0.85509,1.3659,0.52041,2.2902-1.6491,4.5547-1.4971,1.5626-2.7219,3.4141-2.7219,4.1144,0,0.70033,3.6,4.66,8,8.7992,8.2314,7.7436,9.658,10.697,6.452,13.358-2.4424,2.027-7.306-0.8975-14.068-8.4594-3.236-3.6186-6.5586-6.5627-7.3836-6.5424s-3.3,1.6079-5.5,3.528l-4,3.491,2.5,2.0129c1.375,1.1071,5.0734,4.0325,8.2187,6.5009,8.8135,6.9169,9.6884,13.037,2.9964,20.96-6.3471,7.5151-11.397,7.2077-24.215-1.4742-6.2296-4.2195-8.6373-4.0848-8.8094,0.49266-0.07339,1.9521-0.35688,3.9108-0.63,4.3527-1.0645,1.7223,2.5145,4.6122,10.552,8.5198,8.0806,3.9289,8.3991,4.2132,8.6943,7.7629,0.33532,4.0315-1.5821,5.8467-5.3065,5.0238zm326.7-5.41c-2.0763-2.0763-1.3196-5.6743,2.3-10.936,5.8846-8.5547,3.6821-11.935-3.7727-5.7904-4.8079,3.9631-7.1298,3.5788-7.5326-1.2466-0.24734-2.9624,0.0854-3.7808,1.7527-4.3099,1.1319-0.35925,6.1778-3.7725,11.213-7.5849,5.04-3.81,9.79-6.93,10.56-6.93,5.6894,0,6.8585,5.7108,2.6613,13-3.9026,6.7775-4.4732,8.6817-2.9745,9.9255,0.96551,0.8013,2.1897,0.47792,4.7384-1.2517,5.9444-4.034,10.851-3.9429,10.851,0.20154,0,2.6525-3.64,5.4012-11.992,9.0554-4.1207,1.8029-8.6902,4.131-10.154,5.1736-3.0497,2.1716-5.9169,2.4322-7.6534,0.69565zm-15.867-24.374c-0.33227-0.8659-0.0424-3.2765,0.64421-5.3569,1.594-4.8299,0.66203-7.6868-3.1509-9.6585-2.4625-1.2734-3.5645-1.3472-5.8688-0.39271-3.4733,1.4387-4.9577,0.65076-4.9577-2.6316,0-2.7812,4.1694-5.0054,19.67-10.493,9.9581-3.5256,11.83-3.5852,13.89-0.44152,2.1264,3.2453,1.4327,5.1745-5.7241,15.919-3.2495,4.8783-6.5784,10.166-7.3977,11.75-1.6659,3.2215-6.0601,4.0292-7.105,1.306zm9.47-16.63c0.66-0.66,1.2-2.0399,1.2-3.0664,0-1.4461-0.61925-1.7952-2.75-1.55-2.16,0.24853-2.8179,0.90645-3.0664,3.0664-0.24517,2.1308,0.10386,2.75,1.55,2.75,1.0265,0,2.4064-0.54,3.0664-1.2zm-31.55-8.4623c-2.2445-0.90569-1.3161-4.9006,1.8361-7.9006,4.2985-4.091,4.8242-5.3422,5.9391-14.136,1.3162-10.381,1.7324-11.48,4.2086-11.11,3.4513,0.51602,4.3181,3.0595,3.0678,9.0016-1.569,7.4564-0.33816,8.6439,6.5779,6.3468,5.7223-1.9006,8.7121-1.4022,9.6687,1.6118,0.95569,3.0111-0.3664,3.7878-10.049,5.9038-7.823,1.7095-9.2755,2.3969-13.586,6.4293-4.8428,4.5299-5.3513,4.7855-7.6627,3.8528zm-10.48-9.43c-1.3823-0.78363-1.6074-1.8433-1.1305-5.3227,0.49734-3.6285,0.23011-4.7096-1.622-6.5617-1.6684-1.6684-2.8741-2.0517-4.8695-1.5482-6.4894,1.6375-9.3959,1.7507-10.252,0.39936-1.399-2.2086-1.1429-2.6102,3.8498-6.037,2.6125-1.7931,7.8569-5.8647,11.654-9.048,5.37-4.503,7.65-5.796,10.22-5.796,6.403,0,6.267,3.9321-0.96635,27.939-1.5379,5.1043-4.2499,7.4567-6.8785,5.9666zm3.73-20.396c0-2.2062-3.1089-3.3048-4.739-1.6747-1.6808,1.6808-0.0229,4.3372,2.4845,3.9811,1.48-0.209,2.26-1.007,2.26-2.306zm-231.32,12.146c-3.13-2.94-8.16-7.266-11.18-9.617-5.6442-4.3868-7.3592-6.9437-6.3758-9.5064,1.3292-3.4637,6.156-2.7138,10.813,1.6801,5.5333,5.2208,7.5797,3.7697,4.4721-3.1712-2.2642-5.0573-2.3344-6.0819-0.58115-8.4797,2.2496-3.0765,6.2372-2.2216,11.268,2.4155,3.286,3.0289,4.8976,3.9248,5.6703,3.1521,0.77269-0.77269,0.71253-1.8688-0.21168-3.8566-2.8412-6.111-3.0513-8.2804-1.0003-10.331,1.07-1.07,2.85-1.946,3.95-1.946s2.9-0.9,4-2c4.3152-4.3152,8.0592-1.5375,11.95,8.8652,3.2585,8.7131,6.8313,11.954,9.8504,8.9348,1.9529-1.9529,1.4061-5.098-2.3-13.231-1.925-4.2241-3.5-8.4653-3.5-9.4248,0-3.9606,4.5374-5.4663,7.2162-2.3946,1.9573,2.2443,7.7895,20.804,7.7862,24.777-0.01,5.589-5.81,10.474-12.44,10.474-3.41,0-8.8-4.967-12.51-11.539-3.05-5.416-5.06-6.945-5.06-3.855,0,2.93,3.1307,13.743,4.5768,15.807,1.8545,2.6477,1.8035,5.0639-0.14818,7.0155-2.7232,2.7232-5.4704,1.8011-10.215-3.4286-7.3708-8.1252-11.106-5.6016-5.7019,3.8521,2.9879,5.2267,3.1786,8.708,0.55369,10.113-3.4001,1.8197-5.0911,1.151-10.89-4.3058zm193.11-13.561c-5.187-2.4236-6.3794-5.7119-3.5564-9.8068,1.0586-1.5355,3.4181-6.687,5.2434-11.448,4.3446-11.332,5.8346-12.13,14.256-7.642,9.9651,5.3113,12.447,12.57,7.0219,20.533-6.4891,9.5234-14.353,12.387-22.965,8.3638zm12.1-6.187c5.7999-4.5622,7.147-11.124,3.0699-14.954-3.2223-3.0272-4.95-2.101-8.6477,4.6362-3.1538,5.7463-3.5398,9.88-1.0573,11.326,2.5563,1.4889,3.6771,1.3186,6.6351-1.0082zm-145.12-1.567c-0.67503-0.27325-2.5564-4.6252-4.1808-9.6711-1.6244-5.0458-3.6596-10.847-4.5227-12.892-1.9572-4.6373-2.0028-8.1773-0.12555-9.7353,1.8232-1.5131,10.775-4.1484,16.169-4.76,3.5468-0.40217,4.6135-0.02683,7.75,2.727,4.0134,3.5239,4.8106,7.8506,2.1053,11.427-2.1527,2.8462-1.8115,4.8558,1.3365,7.8718,4.7598,4.5602,5.5767,3.7271,4.844-4.9402-0.35461-4.195-1.1673-9.3714-1.8059-11.503-1.5-5.02,0.02-8.87,3.52-8.87,1.3194,0,2.9174,0.62465,3.551,1.3881,1.3747,1.6564,5.3021,27.377,4.5446,29.764-0.71521,2.2534-2.9761,2.9794-5.8618,1.8823-1.8657-0.70936-2.7789-0.48296-4.1463,1.0281-3.075,3.3978-6.9582,2.503-10.662-2.457-5.3084-7.1088-9.6437-8.5189-8.4145-2.7368,1.7341,8.1575,1.7971,9.2287,0.62521,10.641-1.2552,1.5124-2.503,1.7335-4.7197,0.83612zm6.2594-21.794c6.804-2.8429,3.2362-9.3145-3.6845-6.6832-3.1114,1.183-4.2358,4.6012-2.1872,6.6498,1.8097,1.8097,1.6231,1.8086,5.8717,0.03344zm110.18,21.83c-0.39-0.393-0.71-3.703-0.71-7.357,0-7.4793-1.6924-11.305-3.8507-8.7044-0.68501,0.82539-2.2629,4.1275-3.5065,7.338-2.3634,6.1017-4.7825,7.8179-6.4989,4.6108-0.97387-1.8197,1.2896-12.373,3.6267-16.91,0.52678-1.0225,1.2034-3.7893,1.5037-6.1483,0.63-4.887,2.17-7.211,4.78-7.211,2.8755,0,4.6534,2.5325,5.4059,7.7005,1.2572,8.6335,5.725,12.461,7.0618,6.0495,0.95658-4.588,3.1946-7.75,5.4853-7.75,3.6149,0,3.4347,4.1367-0.51804,11.893-2.0124,3.9488-4.1825,9.3008-4.8224,11.893-1.0398,4.2123-1.4865,4.7454-4.1995,5.0112-1.6698,0.16357-3.3573-0.02393-3.75-0.41667zm-26.61-9.881c-1.6434-3.7153-2.4569-4.5-4.6648-4.5-1.5535,0-4.1259,1.2746-6.1382,3.0414-2.6018,2.2844-4.0036,2.8612-5.632,2.3173-1.19-0.398-3.97-0.979-6.17-1.291-3.9672-0.56263-4.0041-0.60802-4.5-5.5355-0.41888-4.1622-0.95598-5.2167-3.3106-6.5-2.6593-1.4493-2.9151-1.4047-4.75,0.82896-1.27,1.547-1.94,3.885-1.94,6.781,0,4.7738-1.8698,6.5576-4.8859,4.6614-1.278-0.80348-1.7719-3.6994-2.3721-13.909-0.93-15.857-0.65-17.394,3.17-17.394,3.2,0,4.09,1.417,4.09,6.51,0,8.9768,9.6782,8.524,10.914-0.51067,0.68902-5.0388,3.0369-7.1155,5.6205-4.9714,1.4454,1.1996,1.6003,2.5321,1.0283,8.8447-0.37043,4.0878-0.90145,8.6011-1.1801,10.03-0.28555,1.4641,0.12776,3.4534,0.94732,4.5596,2.1866,2.9511,4.0006,0.87211,9.6946-11.11,3.934-8.2789,5.3908-10.418,7.4463-10.934,5.1514-1.2929,6.9295,2.7904,8.5301,19.589,1,10.499,0.38,13.992-2.49,13.992-0.77991,0-2.3138-2.025-3.4086-4.5zm-1.78-12.158c0.76-0.757-1.13-3.342-2.44-3.342-0.49,0-0.88,0.9-0.88,2,0,1.9217,1.9556,2.7111,3.3247,1.342z"/>
 </g>
</svg>
